<svg xmlns="http://www.w3.org/2000/svg" xmlns:xlink="http://www.w3.org/1999/xlink" width="500" zoomAndPan="magnify" viewBox="0 0 375 374.999991" height="500" preserveAspectRatio="xMidYMid meet" version="1.0"><path stroke-linecap="butt" transform="matrix(2.576213, 0, 0, 2.576213, 134.469956, 92.189034)" fill="none" stroke-linejoin="miter" d="M 2.292141 36.380925 C 2.292141 32.761575 3.107897 29.503098 4.73941 26.603979 C 6.38002 23.70486 8.610462 21.438028 11.432251 19.806515 C 14.261622 18.165904 17.403345 17.345599 20.857421 17.345599 C 24.902845 17.345599 28.435768 18.32663 31.456189 20.288691 C 34.485708 22.241654 36.694922 25.010373 38.08383 28.594849 L 32.264364 28.594849 C 31.230264 26.35531 29.74583 24.632821 27.811062 23.425865 C 25.874778 22.220426 23.557908 21.616948 20.857421 21.616948 C 18.263074 21.616948 15.932558 22.220426 13.865874 23.425865 C 11.800706 24.632821 10.181324 26.347728 9.009243 28.569072 C 7.838678 30.791933 7.251879 33.395378 7.251879 36.380925 C 7.251879 39.333114 7.838678 41.91988 9.009243 44.141224 C 10.181324 46.364085 11.800706 48.082025 13.865874 49.296562 C 15.932558 50.503518 18.263074 51.106995 20.857421 51.106995 C 23.557908 51.106995 25.874778 50.512615 27.811062 49.323855 C 29.74583 48.133579 31.230264 46.420187 32.264364 44.180648 L 38.08383 44.180648 C 36.694922 47.730249 34.485708 50.477741 31.456189 52.421606 C 28.435768 54.357891 24.902845 55.325274 20.857421 55.325274 C 17.403345 55.325274 14.261622 54.518616 11.432251 52.903782 C 8.610462 51.281367 6.38002 49.028181 4.73941 46.145741 C 3.107897 43.264817 2.292141 40.009373 2.292141 36.380925 Z M 2.292141 36.380925 " stroke="#ffffff" stroke-width="0.666666" stroke-opacity="1" stroke-miterlimit="4"/></svg>