<svg xmlns="http://www.w3.org/2000/svg" xmlns:xlink="http://www.w3.org/1999/xlink" width="500" zoomAndPan="magnify" viewBox="0 0 375 374.999991" height="500" preserveAspectRatio="xMidYMid meet" version="1.0"><path stroke-linecap="butt" transform="matrix(2.576213, 0, 0, 2.576213, 143.534409, 92.189056)" fill="none" stroke-linejoin="miter" d="M 16.84763 55.481442 C 14.113785 55.481442 11.63619 54.861286 9.41333 53.619456 C 7.191986 52.370045 5.446752 50.599035 4.179146 48.307942 C 2.920637 46.016849 2.291383 43.360334 2.291383 40.339913 C 2.291383 37.35285 2.938832 34.71453 4.232216 32.423437 C 5.53318 30.123247 7.30419 28.361334 9.54373 27.1377 C 11.783269 25.912549 14.291189 25.30149 17.069006 25.30149 C 19.837726 25.30149 22.342613 25.912549 24.582152 27.1377 C 26.821692 28.361334 28.588153 30.1096 29.881536 32.384014 C 31.182501 34.658427 31.834499 37.310394 31.834499 40.339913 C 31.834499 43.360334 31.165822 46.016849 29.828467 48.307942 C 28.500209 50.599035 26.70039 52.370045 24.425976 53.619456 C 22.151562 54.861286 19.625447 55.481442 16.84763 55.481442 Z M 16.84763 51.21161 C 18.592863 51.21161 20.228925 50.803732 21.755814 49.987975 C 23.28422 49.170703 24.516953 47.947068 25.454011 46.315556 C 26.400167 44.674945 26.873245 42.682559 26.873245 40.339913 C 26.873245 37.986653 26.409265 35.995783 25.479788 34.362754 C 24.559408 32.722143 23.353969 31.503058 21.860437 30.70398 C 20.366906 29.906419 18.753588 29.506122 17.017453 29.506122 C 15.237345 29.506122 13.610381 29.906419 12.135045 30.70398 C 10.659708 31.503058 9.473981 32.722143 8.580894 34.362754 C 7.695389 35.995783 7.252637 37.986653 7.252637 40.339913 C 7.252637 42.717433 7.686292 44.726499 8.553601 46.367109 C 9.431525 48.000138 10.597541 49.214675 12.056198 50.013752 C 13.514856 50.811313 15.111494 51.21161 16.84763 51.21161 Z M 16.84763 51.21161 " stroke="#ffffff" stroke-width="0.666666" stroke-opacity="1" stroke-miterlimit="4"/></svg>