<svg xmlns="http://www.w3.org/2000/svg" xmlns:xlink="http://www.w3.org/1999/xlink" width="500" zoomAndPan="magnify" viewBox="0 0 375 374.999991" height="500" preserveAspectRatio="xMidYMid meet" version="1.0"><path stroke-linecap="butt" transform="matrix(2.576213, 0, 0, 2.576213, 141.05957, 92.188998)" fill="none" stroke-linejoin="miter" d="M 2.29223 40.286865 C 2.29223 37.292221 2.894191 34.667548 4.101147 32.409813 C 5.3172 30.153595 6.979038 28.403812 9.088178 27.163499 C 11.206415 25.921669 13.579387 25.301512 16.210125 25.301512 C 18.484539 25.301512 20.598227 25.826144 22.55119 26.876923 C 24.511735 27.918604 26.009815 29.293866 27.042399 31.004225 L 27.042399 15.536696 L 31.938453 15.536696 L 31.938453 54.999289 L 27.042399 54.999289 L 27.042399 49.505822 C 26.079564 51.249539 24.655781 52.68242 22.772567 53.801431 C 20.887836 54.921959 18.683171 55.481465 16.158572 55.481465 C 13.562708 55.481465 11.206415 54.843113 9.088178 53.567925 C 6.979038 52.283639 5.3172 50.486853 4.101147 48.177565 C 2.894191 45.860695 2.29223 43.229957 2.29223 40.286865 Z M 27.042399 40.339935 C 27.042399 38.13527 26.595098 36.217181 25.702011 34.584152 C 24.816506 32.943542 23.618648 31.689582 22.108438 30.822272 C 20.598227 29.945865 18.934873 29.506145 17.121407 29.506145 C 15.307941 29.506145 13.653684 29.936767 12.160152 30.796495 C 10.668137 31.647126 9.474828 32.891989 8.580225 34.532599 C 7.69472 36.164112 7.251968 38.082201 7.251968 40.286865 C 7.251968 42.526405 7.69472 44.471787 8.580225 46.119978 C 9.474828 47.769686 10.668137 49.032744 12.160152 49.909151 C 13.653684 50.776461 15.307941 51.211632 17.121407 51.211632 C 18.934873 51.211632 20.598227 50.776461 22.108438 49.909151 C 23.618648 49.032744 24.816506 47.769686 25.702011 46.119978 C 26.595098 44.471787 27.042399 42.5446 27.042399 40.339935 Z M 27.042399 40.339935 " stroke="#ffffff" stroke-width="0.666666" stroke-opacity="1" stroke-miterlimit="4"/></svg>