<svg xmlns="http://www.w3.org/2000/svg" xmlns:xlink="http://www.w3.org/1999/xlink" width="500" zoomAndPan="magnify" viewBox="0 0 375 374.999991" height="500" preserveAspectRatio="xMidYMid meet" version="1.0"><path stroke-linecap="butt" transform="matrix(2.576213, 0, 0, 2.576213, 144.906, 92.189056)" fill="none" stroke-linejoin="miter" d="M 30.766849 39.272455 C 30.766849 40.191318 30.713779 41.167799 30.610672 42.201899 L 7.252444 42.201899 C 7.434397 45.082823 8.419976 47.33146 10.207666 48.946294 C 12.004452 50.559611 14.183341 51.367786 16.74433 51.367786 C 18.844372 51.367786 20.592638 50.881062 21.990644 49.909129 C 23.396232 48.928099 24.38636 47.622585 24.959512 45.989556 L 30.18005 45.989556 C 29.399168 48.79315 27.837404 51.076661 25.493241 52.838574 C 23.149079 54.600486 20.233281 55.481442 16.74433 55.481442 C 13.974095 55.481442 11.4965 54.861286 9.31003 53.619456 C 7.122044 52.370045 5.402588 50.599035 4.153176 48.307942 C 2.912863 46.016849 2.29119 43.360334 2.29119 40.339913 C 2.29119 37.310394 2.894668 34.658427 4.101623 32.384014 C 5.31616 30.1096 7.012873 28.361334 9.191761 27.1377 C 11.379747 25.912549 13.896764 25.30149 16.74433 25.30149 C 19.520631 25.30149 21.973965 25.904968 24.099784 27.110407 C 26.2347 28.317362 27.87986 29.979201 29.035262 32.097438 C 30.189147 34.206577 30.766849 36.597744 30.766849 39.272455 Z M 25.754041 38.25655 C 25.754041 36.406693 25.346163 34.819153 24.530406 33.490895 C 23.713134 32.15354 22.60322 31.139151 21.196116 30.444697 C 19.790528 29.750243 18.236346 29.403016 16.535084 29.403016 C 14.078718 29.403016 11.987773 30.183898 10.259219 31.745662 C 8.541278 33.308942 7.555699 35.478733 7.303997 38.25655 Z M 25.754041 38.25655 " stroke="#ffffff" stroke-width="0.666666" stroke-opacity="1" stroke-miterlimit="4"/></svg>