<svg xmlns="http://www.w3.org/2000/svg" xmlns:xlink="http://www.w3.org/1999/xlink" width="500" zoomAndPan="magnify" viewBox="0 0 375 374.999991" height="500" preserveAspectRatio="xMidYMid meet" version="1.0"><path stroke-linecap="butt" transform="matrix(2.576213, 0, 0, 2.576213, 145.383072, 92.189056)" fill="none" stroke-linejoin="miter" d="M 22.719775 35.860834 C 24.07381 36.068564 25.311091 36.620488 26.430102 37.513575 C 27.55063 38.39908 28.436135 39.501412 29.086617 40.820572 C 29.746197 42.132151 30.076745 43.53319 30.076745 45.026721 C 30.076745 46.909936 29.59457 48.606648 28.631735 50.116859 C 27.676481 51.62707 26.283023 52.821895 24.451362 53.698302 C 22.619701 54.565612 20.459008 54.999267 17.967767 54.999267 L 4.101425 54.999267 L 4.101425 17.827767 L 17.434038 17.827767 C 19.960153 17.827767 22.111749 18.249291 23.891857 19.090824 C 25.670448 19.924776 27.003254 21.052885 27.888759 22.476668 C 28.783362 23.891353 29.230663 25.487992 29.230663 27.268099 C 29.230663 29.472764 28.631735 31.295328 27.433877 32.73579 C 26.2436 34.176252 24.672739 35.217933 22.719775 35.860834 Z M 8.958057 33.882094 L 17.121685 33.882094 C 19.396099 33.882094 21.153462 33.348365 22.393776 32.279391 C 23.644704 31.211933 24.269409 29.736596 24.269409 27.853382 C 24.269409 25.970167 23.644704 24.494831 22.393776 23.425857 C 21.153462 22.358399 19.361225 21.824669 17.017062 21.824669 L 8.958057 21.824669 Z M 17.550791 51.002364 C 19.964702 51.002364 21.843368 50.43376 23.188305 49.296554 C 24.542339 48.160863 25.220114 46.576355 25.220114 44.544545 C 25.220114 42.488476 24.507464 40.864544 23.085198 39.675784 C 21.668996 38.477926 19.769103 37.878997 17.382485 37.878997 L 8.958057 37.878997 L 8.958057 51.002364 Z M 17.550791 51.002364 " stroke="#ffffff" stroke-width="0.666666" stroke-opacity="1" stroke-miterlimit="4"/></svg>