<svg xmlns="http://www.w3.org/2000/svg" xmlns:xlink="http://www.w3.org/1999/xlink" width="500" zoomAndPan="magnify" viewBox="0 0 375 374.999991" height="500" preserveAspectRatio="xMidYMid meet" version="1.0"><path stroke-linecap="butt" transform="matrix(2.576213, 0, 0, 2.576213, 143.534409, 92.189034)" fill="none" stroke-linejoin="miter" d="M 30.024066 25.770027 L 30.024066 54.999275 L 25.167435 54.999275 L 25.167435 50.677889 C 24.247056 52.169905 22.958221 53.337437 21.300932 54.180486 C 19.651224 55.012922 17.833209 55.429898 15.845372 55.429898 C 13.56186 55.429898 11.513372 54.961368 9.699906 54.022794 C 7.894021 53.076638 6.467206 51.661952 5.416427 49.778738 C 4.365648 47.895523 3.841016 45.599882 3.841016 42.891813 L 3.841016 25.770027 L 8.644578 25.770027 L 8.644578 42.253461 C 8.644578 45.135901 9.369358 47.348148 10.818917 48.893233 C 12.277575 50.438318 14.269961 51.211618 16.796076 51.211618 C 19.390424 51.211618 21.43588 50.412541 22.927896 48.815903 C 24.421427 47.217748 25.167435 44.887232 25.167435 41.824355 L 25.167435 25.770027 Z M 30.024066 25.770027 " stroke="#ffffff" stroke-width="0.666666" stroke-opacity="1" stroke-miterlimit="4"/></svg>