<svg xmlns="http://www.w3.org/2000/svg" xmlns:xlink="http://www.w3.org/1999/xlink" width="500" zoomAndPan="magnify" viewBox="0 0 375 374.999991" height="500" preserveAspectRatio="xMidYMid meet" version="1.0"><path stroke-linecap="butt" transform="matrix(2.576213, 0, 0, 2.576213, 141.05957, 92.189056)" fill="none" stroke-linejoin="miter" d="M 2.29223 40.286843 C 2.29223 37.292198 2.894191 34.667525 4.101147 32.409791 C 5.3172 30.153572 6.979038 28.40379 9.088178 27.163476 C 11.206415 25.921647 13.579387 25.30149 16.210125 25.30149 C 18.484539 25.30149 20.598227 25.826121 22.55119 26.8769 C 24.511735 27.918582 26.009815 29.293844 27.042399 31.004203 L 27.042399 15.536674 L 31.938453 15.536674 L 31.938453 54.999267 L 27.042399 54.999267 L 27.042399 49.5058 C 26.079564 51.249517 24.655781 52.682397 22.772567 53.801409 C 20.887836 54.921937 18.683171 55.481442 16.158572 55.481442 C 13.562708 55.481442 11.206415 54.84309 9.088178 53.567902 C 6.979038 52.283617 5.3172 50.48683 4.101147 48.177542 C 2.894191 45.860673 2.29223 43.229934 2.29223 40.286843 Z M 27.042399 40.339913 C 27.042399 38.135248 26.595098 36.217159 25.702011 34.58413 C 24.816506 32.94352 23.618648 31.68956 22.108438 30.82225 C 20.598227 29.945842 18.934873 29.506122 17.121407 29.506122 C 15.307941 29.506122 13.653684 29.936745 12.160152 30.796473 C 10.668137 31.647104 9.474828 32.891966 8.580225 34.532577 C 7.69472 36.164089 7.251968 38.082178 7.251968 40.286843 C 7.251968 42.526382 7.69472 44.471764 8.580225 46.119956 C 9.474828 47.769664 10.668137 49.032722 12.160152 49.909129 C 13.653684 50.776439 15.307941 51.21161 17.121407 51.21161 C 18.934873 51.21161 20.598227 50.776439 22.108438 49.909129 C 23.618648 49.032722 24.816506 47.769664 25.702011 46.119956 C 26.595098 44.471764 27.042399 42.544578 27.042399 40.339913 Z M 27.042399 40.339913 " stroke="#ffffff" stroke-width="0.666666" stroke-opacity="1" stroke-miterlimit="4"/></svg>