<svg width="331" height="60" viewBox="0 0 331 60" fill="none" xmlns="http://www.w3.org/2000/svg">
<path d="M301.639 57.9373L301.754 57.5376L303.033 53.1057L303.167 52.6397L303.637 52.7599C304.821 53.0628 305.841 53.1659 306.706 53.0873C307.511 53.0142 308.233 52.6578 308.884 51.9814L308.891 51.9745L308.891 51.9746C309.555 51.3111 310.199 50.1898 310.799 48.5551L301.639 57.9373ZM301.639 57.9373L302.011 58.1233C302.334 58.2848 302.855 58.4222 303.521 58.5498M301.639 57.9373L303.521 58.5498M310.194 57.9199C311.492 57.346 312.625 56.465 313.593 55.2888C314.56 54.128 315.359 52.6763 315.999 50.9461L329.891 13.4464L330.141 12.7727H329.422H323.968H323.612L323.495 13.1091L314.763 38.3168L306.031 13.1091L305.915 12.7727H305.559H300.104H299.387L299.635 13.4453L311.674 46.1707L310.8 48.5548L310.192 57.9204C310.193 57.9202 310.193 57.9201 310.194 57.9199ZM310.194 57.9199C308.913 58.4921 307.479 58.7727 305.899 58.7727C305.023 58.7727 304.228 58.6999 303.521 58.5498M310.194 57.9199L303.521 58.5498" stroke="white"/>
<path d="M270.253 45.0311L270.255 45.0324C272.432 46.469 274.937 47.1818 277.753 47.1818C279.904 47.1818 281.68 46.8269 283.044 46.0758L283.048 46.0737C284.355 45.3393 285.386 44.4955 286.12 43.5331L286.122 43.5301C286.629 42.8535 287.054 42.2583 287.395 41.7455V46V46.5H287.895H292.753H293.253V46V2.36363V1.86363H292.753H287.725H287.225V2.36363V17.4725C286.921 17.0397 286.56 16.5486 286.144 15.9997C285.438 15.0344 284.427 14.1968 283.134 13.4767C281.795 12.7077 280.015 12.3466 277.838 12.3466C274.995 12.3466 272.469 13.0588 270.277 14.4952C268.089 15.9295 266.39 17.9583 265.176 20.5614C263.96 23.1695 263.361 26.2276 263.361 29.7216C263.361 33.2434 263.96 36.3225 265.176 38.9447L265.176 38.9457C266.39 41.5476 268.08 43.5827 270.253 45.0311ZM286.278 23.4025L286.278 23.4037C286.962 25.1663 287.31 27.2405 287.31 29.6364C287.31 32.0599 286.955 34.1776 286.257 35.9985C285.561 37.7993 284.554 39.1887 283.246 40.1899C281.954 41.165 280.36 41.6648 278.435 41.6648C276.426 41.6648 274.779 41.1375 273.461 40.1102C272.134 39.0509 271.119 37.6235 270.423 35.8089C269.737 33.9695 269.39 31.914 269.39 29.6364C269.39 27.3861 269.73 25.3736 270.401 23.5922C271.083 21.8073 272.089 20.4172 273.413 19.4009L273.413 19.4004C274.731 18.386 276.393 17.8636 278.435 17.8636C280.393 17.8636 282.002 18.3583 283.293 19.32L283.295 19.322C284.599 20.2802 285.597 21.6319 286.278 23.4025Z" stroke="white"/>
<path d="M232.987 45.0311L232.989 45.0324C235.166 46.469 237.672 47.1818 240.488 47.1818C242.638 47.1818 244.414 46.8269 245.778 46.0758L245.782 46.0737C247.089 45.3393 248.121 44.4955 248.854 43.5331L248.856 43.5301C249.364 42.8535 249.789 42.2582 250.13 41.7455V46V46.5H250.63H255.488H255.988V46V2.36363V1.86363H255.488H250.459H249.959V2.36363V17.4725C249.655 17.0397 249.295 16.5486 248.879 15.9997C248.173 15.0344 247.161 14.1968 245.869 13.4767C244.529 12.7077 242.749 12.3466 240.573 12.3466C237.73 12.3466 235.203 13.0588 233.012 14.4952C230.823 15.9295 229.125 17.9583 227.911 20.5614C226.695 23.1695 226.096 26.2276 226.096 29.7216C226.096 33.2434 226.695 36.3225 227.91 38.9447L227.911 38.9457C229.124 41.5476 230.815 43.5827 232.987 45.0311ZM249.012 23.4025L249.013 23.4037C249.696 25.1663 250.044 27.2405 250.044 29.6364C250.044 32.0599 249.689 34.1776 248.991 35.9985C248.295 37.7993 247.288 39.1887 245.981 40.1899C244.689 41.165 243.095 41.6648 241.169 41.6648C239.16 41.6648 237.513 41.1375 236.195 40.1102C234.868 39.0509 233.853 37.6235 233.157 35.8089C232.471 33.9695 232.124 31.914 232.124 29.6364C232.124 27.3861 232.464 25.3736 233.135 23.5922C233.817 21.8073 234.823 20.4172 236.147 19.4009L236.148 19.4004C237.465 18.386 239.128 17.8636 241.169 17.8636C243.127 17.8636 244.736 18.3583 246.027 19.32L246.03 19.322C247.334 20.2802 248.331 21.6319 249.012 23.4025Z" stroke="white"/>
<path d="M213.891 12.7727H213.391V13.2727V32.6193C213.391 34.5928 212.96 36.1709 212.135 37.3886L212.133 37.3917C211.297 38.646 210.268 39.5634 209.048 40.1602L209.046 40.1612C207.812 40.7715 206.616 41.0682 205.454 41.0682C203.493 41.0682 201.909 40.4074 200.661 39.094C199.432 37.7862 198.795 36.0158 198.795 33.7273V13.2727V12.7727H198.295H193.266H192.766V13.2727V34.0682C192.766 36.903 193.229 39.2934 194.182 41.2151L194.183 41.2165C195.131 43.1129 196.446 44.5546 198.132 45.5179L198.135 45.5196C199.809 46.4615 201.714 46.9261 203.835 46.9261C206.384 46.9261 208.538 46.3318 210.261 45.1079L210.263 45.1062C211.566 44.1685 212.612 43.0699 213.391 41.8103V46V46.5H213.891H218.92H219.42V46V13.2727V12.7727H218.92H213.891Z" stroke="white"/>
<path d="M154.425 46V46.5H154.925H170.692C174.173 46.5 177.045 45.983 179.281 44.9172C181.5 43.8587 183.155 42.4096 184.209 40.5584C185.25 38.7293 185.766 36.6754 185.766 34.4091C185.766 32.0429 185.298 30.0064 184.336 28.3229C183.392 26.6716 182.209 25.3855 180.781 24.4835C179.783 23.8533 178.778 23.4172 177.766 23.1843C178.636 22.8551 179.46 22.4317 180.236 21.9142C181.389 21.1553 182.31 20.1256 183 18.8372C183.718 17.5213 184.061 15.8845 184.061 13.9545C184.061 11.7455 183.56 9.72267 182.55 7.8967C181.532 6.04046 179.986 4.57552 177.935 3.4983C175.868 2.39779 173.273 1.86363 170.18 1.86363H154.925H154.425V2.36363V46ZM178.678 30.574L178.68 30.5761C179.385 31.7473 179.737 33.0215 179.737 34.4091C179.737 36.1811 179.069 37.6832 177.704 38.942C176.395 40.1477 174.104 40.8125 170.692 40.8125H160.709V26.642H170.947C172.783 26.642 174.344 27.0115 175.649 27.7305L175.653 27.7324C176.972 28.4457 177.975 29.3932 178.678 30.574ZM174.096 20.1521L174.094 20.1531C172.892 20.7409 171.534 21.0398 170.01 21.0398H160.709V7.55113H170.18C173.014 7.55113 174.973 8.2123 176.174 9.42696L176.176 9.42883C177.416 10.6687 178.033 12.1672 178.033 13.9545C178.033 15.4012 177.672 16.6364 176.968 17.6805L176.965 17.6841C176.265 18.7416 175.313 19.564 174.096 20.1521Z" stroke="white"/>
<path d="M124.619 45.0189L124.622 45.0208C127 46.4685 129.814 47.1818 133.043 47.1818C135.31 47.1818 137.368 46.8329 139.209 46.1259L139.212 46.1246C141.047 45.4054 142.6 44.4023 143.862 43.1108L143.864 43.1087C145.125 41.8029 146.025 40.286 146.56 38.563L146.712 38.0722L146.218 37.9334L141.36 36.5697L140.917 36.4456L140.756 36.8756C140.353 37.9503 139.788 38.8375 139.065 39.5478C138.338 40.2473 137.471 40.7783 136.456 41.139C135.452 41.4868 134.316 41.6648 133.043 41.6648C131.086 41.6648 129.392 41.2415 127.945 40.411C126.502 39.5686 125.367 38.3443 124.541 36.7202C123.867 35.3618 123.466 33.7391 123.35 31.8409H146.594H147.094V31.3409V29.2102C147.094 26.1154 146.684 23.4789 145.845 21.3164C145.014 19.1724 143.889 17.4282 142.46 16.103C141.049 14.7798 139.476 13.8182 137.743 13.2257C136.03 12.6403 134.292 12.3466 132.531 12.3466C129.491 12.3466 126.809 13.0932 124.502 14.6012C122.218 16.09 120.441 18.1658 119.169 20.8118L119.168 20.8129C117.909 23.4482 117.287 26.4787 117.287 29.892C117.287 33.3052 117.909 36.3224 119.169 38.9306L119.171 38.9336C120.446 41.5279 122.262 43.5608 124.619 45.0189ZM140.971 26.4943H123.384C123.524 25.2373 123.874 24.0442 124.435 22.9123C125.178 21.4126 126.236 20.2006 127.613 19.2693L127.613 19.2686C128.983 18.3379 130.615 17.8636 132.531 17.8636C134.27 17.8636 135.752 18.2634 136.996 19.0442L136.998 19.0455C138.267 19.8338 139.241 20.9069 139.925 22.2747L139.925 22.2747L139.927 22.2782C140.559 23.518 140.91 24.9204 140.971 26.4943Z" stroke="white"/>
<path d="M86.913 45.0311L86.9149 45.0324C89.0921 46.469 91.5974 47.1818 94.4133 47.1818C96.564 47.1818 98.34 46.8269 99.7042 46.0758L99.708 46.0737C101.015 45.3393 102.047 44.4955 102.78 43.5331L102.782 43.5301C103.29 42.8535 103.715 42.2583 104.055 41.7455V46V46.5H104.555H109.413H109.913V46V2.36363V1.86363H109.413H104.385H103.885V2.36363V17.4725C103.581 17.0397 103.221 16.5486 102.805 15.9997C102.099 15.0344 101.087 14.1968 99.7945 13.4767C98.4547 12.7077 96.675 12.3466 94.4986 12.3466C91.6553 12.3466 89.1291 13.0588 86.9376 14.4952C84.7492 15.9295 83.0504 17.9583 81.8366 20.5614C80.6205 23.1695 80.0213 26.2276 80.0213 29.7216C80.0213 33.2434 80.6203 36.3225 81.8362 38.9447L81.8366 38.9457C83.0499 41.5476 84.7403 43.5827 86.913 45.0311ZM102.938 23.4025L102.939 23.4037C103.622 25.1663 103.97 27.2405 103.97 29.6364C103.97 32.0599 103.615 34.1776 102.917 35.9985C102.221 37.7993 101.214 39.1887 99.9063 40.1899C98.6144 41.165 97.0206 41.6648 95.0952 41.6648C93.086 41.6648 91.4388 41.1375 90.1207 40.1102C88.794 39.0509 87.7789 37.6235 87.0827 35.8089C86.3967 33.9695 86.0497 31.914 86.0497 29.6364C86.0497 27.3861 86.3899 25.3736 87.0612 23.5922C87.7426 21.8073 88.749 20.4172 90.0729 19.4009L90.0735 19.4004C91.3909 18.386 93.0533 17.8636 95.0952 17.8636C97.0528 17.8636 98.6616 18.3583 99.9527 19.32L99.9554 19.322C101.26 20.2802 102.257 21.6319 102.938 23.4025Z" stroke="white"/>
<path d="M51.5052 44.9946L51.5064 44.9954C53.8257 46.4579 56.5129 47.1818 59.5501 47.1818C62.587 47.1818 65.2675 46.458 67.5732 44.9949C69.8866 43.5359 71.6799 41.4961 72.9535 38.8907C74.2432 36.2813 74.8796 33.2487 74.8796 29.8068C74.8796 26.337 74.2434 23.2833 72.9538 20.6597C71.6805 18.0402 69.8872 15.9928 67.5731 14.5334C65.2674 13.0704 62.5869 12.3466 59.5501 12.3466C56.5129 12.3466 53.8257 13.0705 51.5064 14.533L51.5052 14.5338C49.2054 15.9932 47.4127 18.0403 46.1255 20.6587L46.1255 20.6587L46.1245 20.6607C44.8495 23.284 44.2205 26.3374 44.2205 29.8068C44.2205 33.2485 44.8497 36.2808 46.125 38.89L46.126 38.892C47.4134 41.4962 49.2061 43.5356 51.5052 44.9946ZM64.7789 40.0474C63.4361 41.1137 61.7063 41.6648 59.5501 41.6648C57.3938 41.6648 55.664 41.1137 54.3212 40.0474C52.9496 38.9581 51.9286 37.5232 51.2617 35.7266C50.5882 33.9122 50.2489 31.9405 50.2489 29.8068C50.2489 27.6732 50.5882 25.6939 51.2621 23.8646C51.9295 22.0532 52.9512 20.6038 54.3236 19.5005C55.6663 18.421 57.3952 17.8636 59.5501 17.8636C61.7049 17.8636 63.4338 18.421 64.7766 19.5005C66.1489 20.6038 67.1706 22.0532 67.838 23.8646C68.5119 25.6939 68.8512 27.6732 68.8512 29.8068C68.8512 31.9405 68.5119 33.9122 67.8384 35.7266C67.1715 37.5232 66.1505 38.9581 64.7789 40.0474Z" stroke="white"/>
<path d="M36.653 9.75526C35.5717 7.94372 34.2249 6.40575 32.613 5.14531C31.0035 3.87254 29.1973 2.90783 27.1977 2.25096C25.2113 1.5938 23.0914 1.26704 20.8409 1.26704C17.0339 1.26704 13.6305 2.19827 10.6462 4.07079C7.66304 5.94256 5.32342 8.60098 3.62447 12.0279C1.92135 15.4633 1.07954 19.5199 1.07954 24.1818C1.07954 28.8437 1.92135 32.9004 3.62447 36.3357C5.32342 39.7627 7.66304 42.4211 10.6462 44.2929C13.6305 46.1654 17.0339 47.0966 20.8409 47.0966C23.0916 47.0966 25.2118 46.7698 27.1983 46.1125C29.197 45.4558 31.0027 44.4987 32.6119 43.2405L32.6141 43.2388C34.2257 41.9641 35.5725 40.4191 36.6538 38.6071C37.739 36.7887 38.4827 34.7348 38.89 32.4514L38.9948 31.8636H38.3977H33.1136H32.7068L32.6241 32.262C32.3234 33.7106 31.7997 34.9846 31.0578 36.0908L31.057 36.092C30.323 37.1929 29.4277 38.1219 28.3696 38.8817C27.3225 39.6295 26.1584 40.1951 24.8743 40.5776C23.5872 40.961 22.2434 41.1534 20.8409 41.1534C18.2881 41.1534 15.9872 40.5098 13.9256 39.2266C11.8861 37.9484 10.2477 36.0583 9.01833 33.5309C7.8096 31.0169 7.19318 27.907 7.19318 24.1818C7.19318 20.4566 7.80958 17.3468 9.01829 14.8328C10.2476 12.3055 11.8859 10.4155 13.9252 9.13724C15.987 7.85389 18.288 7.21023 20.8409 7.21023C22.2434 7.21023 23.5872 7.40263 24.8743 7.78601C26.1569 8.16805 27.3199 8.73985 28.3664 9.50096L28.3664 9.501L28.3724 9.50522C29.429 10.2502 30.3234 11.1713 31.057 12.2717L31.057 12.2717L31.0594 12.2752C31.7996 13.3653 32.3231 14.6378 32.6239 16.1007L32.706 16.5H33.1136H38.3977H38.9941L38.8901 15.9128C38.4829 13.6153 37.7391 11.5606 36.653 9.75526ZM36.653 9.75526C36.6533 9.75569 36.6535 9.75612 36.6538 9.75655L36.2244 10.0128M36.653 9.75526C36.653 9.75518 36.6529 9.7551 36.6529 9.75502L36.2244 10.0128M36.2244 10.0128C37.1969 11.6291 37.8897 13.4582 38.3029 15.5M36.2244 10.0128C35.1733 8.25142 33.8665 6.75994 32.304 5.53835C30.7415 4.30256 28.9872 3.36506 27.0412 2.72585L38.3029 15.5M38.3029 15.5H38.3977V16L37.9054 16.0872C37.9002 16.0581 37.895 16.029 37.8897 16M38.3029 15.5L37.8897 16M38.3023 32.8636C37.889 34.8931 37.1964 36.7222 36.2244 38.3509C35.1733 40.1122 33.8665 41.6108 32.304 42.8466C30.7415 44.0682 28.9872 44.9986 27.0412 45.6378L38.3023 32.8636ZM38.3023 32.8636H38.3977V32.3636L37.9055 32.2758C37.9003 32.3052 37.895 32.3344 37.8896 32.3636H33.1136C32.8011 33.8693 32.2543 35.2045 31.473 36.3693C30.706 37.5199 29.7685 38.4929 28.6605 39.2884C27.5668 40.0696 26.3523 40.6591 25.017 41.0568C23.6818 41.4545 22.2898 41.6534 20.8409 41.6534C18.1989 41.6534 15.8054 40.9858 13.6605 39.6506L38.3023 32.8636ZM37.8897 16H33.1136C32.8011 14.4801 32.2543 13.1449 31.473 11.9943C30.706 10.8438 29.7685 9.87784 28.6605 9.09659L37.8897 16Z" stroke="white"/>
</svg>
