<svg xmlns="http://www.w3.org/2000/svg" xmlns:xlink="http://www.w3.org/1999/xlink" width="500" zoomAndPan="magnify" viewBox="0 0 375 374.999991" height="500" preserveAspectRatio="xMidYMid meet" version="1.0"><defs><g/></defs><g fill="#000000" fill-opacity="1"><g transform="translate(49.58264, 207.606532)"><g><path d="M 39.421875 0 L 39.3125 -18.4375 L 30.53125 -3.640625 L 24.515625 -3.640625 L 15.71875 -17.8125 L 15.71875 0 L 3.296875 0 L 3.296875 -40.46875 L 14.515625 -40.46875 L 27.6875 -18.90625 L 40.53125 -40.46875 L 51.734375 -40.46875 L 51.859375 0 Z M 39.421875 0 "/></g></g></g><g fill="#000000" fill-opacity="1"><g transform="translate(104.724245, 207.606532)"><g><path d="M 36.9375 -10.296875 L 36.9375 0 L 3.296875 0 L 3.296875 -40.46875 L 36.1875 -40.46875 L 36.1875 -30.171875 L 16.703125 -30.171875 L 16.703125 -25.4375 L 33.8125 -25.4375 L 33.8125 -15.609375 L 16.703125 -15.609375 L 16.703125 -10.296875 Z M 36.9375 -10.296875 "/></g></g></g><g fill="#000000" fill-opacity="1"><g transform="translate(143.623932, 207.606532)"><g><path d="M 3.296875 -40.46875 L 23.234375 -40.46875 C 27.742188 -40.46875 31.722656 -39.644531 35.171875 -38 C 38.628906 -36.363281 41.3125 -34.023438 43.21875 -30.984375 C 45.125 -27.941406 46.078125 -24.359375 46.078125 -20.234375 C 46.078125 -16.109375 45.125 -12.519531 43.21875 -9.46875 C 41.3125 -6.425781 38.628906 -4.085938 35.171875 -2.453125 C 31.722656 -0.816406 27.742188 0 23.234375 0 L 3.296875 0 Z M 22.65625 -10.640625 C 25.59375 -10.640625 27.9375 -11.476562 29.6875 -13.15625 C 31.4375 -14.832031 32.3125 -17.191406 32.3125 -20.234375 C 32.3125 -23.273438 31.4375 -25.632812 29.6875 -27.3125 C 27.9375 -28.988281 25.59375 -29.828125 22.65625 -29.828125 L 16.9375 -29.828125 L 16.9375 -10.640625 Z M 22.65625 -10.640625 "/></g></g></g><g fill="#000000" fill-opacity="1"><g transform="translate(191.367081, 207.606532)"><g><path d="M 3.296875 -40.46875 L 23.234375 -40.46875 C 27.742188 -40.46875 31.722656 -39.644531 35.171875 -38 C 38.628906 -36.363281 41.3125 -34.023438 43.21875 -30.984375 C 45.125 -27.941406 46.078125 -24.359375 46.078125 -20.234375 C 46.078125 -16.109375 45.125 -12.519531 43.21875 -9.46875 C 41.3125 -6.425781 38.628906 -4.085938 35.171875 -2.453125 C 31.722656 -0.816406 27.742188 0 23.234375 0 L 3.296875 0 Z M 22.65625 -10.640625 C 25.59375 -10.640625 27.9375 -11.476562 29.6875 -13.15625 C 31.4375 -14.832031 32.3125 -17.191406 32.3125 -20.234375 C 32.3125 -23.273438 31.4375 -25.632812 29.6875 -27.3125 C 27.9375 -28.988281 25.59375 -29.828125 22.65625 -29.828125 L 16.9375 -29.828125 L 16.9375 -10.640625 Z M 22.65625 -10.640625 "/></g></g></g><g fill="#000000" fill-opacity="1"><g transform="translate(239.110231, 207.606532)"><g><path d="M 3.296875 -40.46875 L 16.9375 -40.46875 L 16.9375 0 L 3.296875 0 Z M 3.296875 -40.46875 "/></g></g></g><g fill="#000000" fill-opacity="1"><g transform="translate(259.34038, 207.606532)"><g><path d="M 12.078125 -29.890625 L 0.234375 -29.890625 L 0.234375 -40.46875 L 37.578125 -40.46875 L 37.578125 -29.890625 L 25.71875 -29.890625 L 25.71875 0 L 12.078125 0 Z M 12.078125 -29.890625 "/></g></g></g></svg>