<svg xmlns="http://www.w3.org/2000/svg" xmlns:xlink="http://www.w3.org/1999/xlink" width="500" zoomAndPan="magnify" viewBox="0 0 375 374.999991" height="500" preserveAspectRatio="xMidYMid meet" version="1.0"><defs><clipPath id="deddb5388c"><path d="M 116.25 78.699219 L 258.75 78.699219 L 258.75 296.199219 L 116.25 296.199219 Z M 116.25 78.699219 " clip-rule="nonzero"/></clipPath></defs><g clip-path="url(#deddb5388c)"><path fill="#00bf63" d="M 200.066406 286.460938 L 250.023438 286.460938 L 250.023438 212.472656 L 324.027344 212.472656 L 324.027344 162.519531 L 250.023438 162.519531 L 250.023438 88.511719 L 200.066406 88.511719 L 200.066406 162.519531 L 126.0625 162.519531 L 126.0625 212.472656 L 200.066406 212.472656 Z M 259.835938 296.292969 L 190.253906 296.292969 L 190.253906 222.285156 L 116.25 222.285156 L 116.25 152.703125 L 190.253906 152.703125 L 190.253906 78.699219 L 259.835938 78.699219 L 259.835938 152.703125 L 333.84375 152.703125 L 333.84375 222.285156 L 259.835938 222.285156 L 259.835938 296.292969 " fill-opacity="1" fill-rule="nonzero"/></g></svg>